<svg xmlns="http://www.w3.org/2000/svg" width="15" height="12.361" viewBox="0 0 15 12.361">
  <g id="heart_icon" transform="translate(-1.049 -3.29)">
    <path id="Path_30" d="M8.528,15.65a1.523,1.523,0,0,1-1.065-.428L2.31,10.216A4.176,4.176,0,0,1,1.05,7.178,3.864,3.864,0,0,1,2.255,4.413,4.094,4.094,0,0,1,5.121,3.29,4.092,4.092,0,0,1,8.028,4.451l.5.486.41-.4h0a4.287,4.287,0,0,1,5.5-.433,3.937,3.937,0,0,1,.405,6.008L9.593,15.222a1.523,1.523,0,0,1-1.065.428ZM5.1,4.257a3.109,3.109,0,0,0-2.131.836,2.877,2.877,0,0,0-.92,2.1,3.219,3.219,0,0,0,.975,2.333l5.152,5.006a.511.511,0,0,0,.71,0l5.257-5.113a2.993,2.993,0,0,0-.33-4.545,3.255,3.255,0,0,0-4.187.345l-.745.744a.511.511,0,0,1-.71,0l-.85-.826a3.189,3.189,0,0,0-2.2-.885Z" transform="translate(0)" fill="#858585"/>
  </g>
</svg>
