<svg xmlns="http://www.w3.org/2000/svg" width="220" height="320" viewBox="0 0 220 320">
  <g id="single_img" data-name="single img" transform="translate(-737 -402)" clip-path="url(#clip-path)">
    <g id="Layer_x0020_1" transform="translate(737 415.333)">
      <rect id="Rectangle_61" data-name="Rectangle 61" width="220" height="317.333" transform="translate(0 -13)" fill="#fff"/>
      <g id="_2001274487232">
        <g id="Group_25" data-name="Group 25" clip-path="url(#clip-path-2)">
          <rect id="Rectangle_62" data-name="Rectangle 62" width="165.587" height="7.553" transform="translate(28.38 202.84)" fill="url(#pattern)"/>
        </g>
      </g>
      <path id="Path_55" data-name="Path 55" d="M112.127,197.927V162.433l.22-9.753c.44.44,2.64,2.933,3.007,3.373,1.467,1.54,3.813,4.4,5.427,6.16.733.807,1.393,1.76,2.2,2.493,1.173,1.173,1.687,1.1,3.3.367l22.587-10.267c.88-.367,12.393-5.72,13.053-5.793l-.073,26.4-6.16,2.787c-2.053,1.027-4.107,1.833-6.233,2.86-10.12,4.767-20.827,9.24-31.02,14.08ZM58.08,175.267V149.013c.587.073,12.54,5.647,13.42,6.013,1.247.513,22.807,10.487,23.613,10.56,1.54.073,2.273-1.247,2.933-1.98l3.373-3.96c.367-.44.807-.88,1.173-1.32l4.62-5.207c.587.147.66.073.66.66.073,2.64,0,7.26,0,10.047,0,2.713.147,32.927,0,34.1-.587-.073-24.64-11.147-24.933-11.293-4.107-1.833-8.36-3.74-12.467-5.573l-9.387-4.327-1.54-.66-.733-.367C57.713,175.267,58.227,175.413,58.08,175.267Zm55.44-27.793c.367-.293,11.807-5.427,12.467-5.72,6.16-2.64,12.467-5.647,18.7-8.507l15.693-7.04a19.033,19.033,0,0,1,3.08-1.393c.513.513,1.1,1.173,1.54,1.687.44.587.88,1.027,1.393,1.687.953,1.173,1.907,2.2,2.933,3.3l5.647,6.527c.147.22.073,0,.22.293l-49.94,22.587-7.333-8.287-2.053-2.42A24.636,24.636,0,0,1,113.52,147.473ZM55,126.5a11.01,11.01,0,0,0,1.467-1.687c.66.147,8.58,3.813,9.387,4.18,3.08,1.393,6.16,2.86,9.313,4.253,7.627,3.447,15.253,6.967,22.953,10.34l8.36,3.887c-.22.513-2.42,2.787-2.933,3.447-1.32,1.54-7.993,8.947-8.727,9.973-.513-.073-5.28-2.347-6.307-2.787-2.127-.88-4.253-1.907-6.307-2.86l-37.4-17.013Zm92.693-5.5c.513-.88,1.1-2.053,1.613-2.86.44.073,9.02,3.96,9.313,4.18-1.393.733-15.4,7.113-15.767,7.113ZM61.38,122.393c.073-.147,0-.073.147-.147l5.94-2.713c.953-.44,5.647-2.64,6.233-2.787a12.23,12.23,0,0,1,1.247,1.907c.953,1.54,8.287,13.053,8.433,13.64-.513-.073-4.84-2.127-5.573-2.42C76.047,128.993,62.773,122.907,61.38,122.393Zm14.593-12.027a5.47,5.47,0,0,0,.88-.513c.587-.293,1.1-.587,1.687-.953.66-.367,2.86-1.76,3.52-1.98.22.293,7.187,13.42,7.92,14.813,1.32,2.567,2.64,4.987,4.033,7.48.587,1.247,1.247,2.493,1.907,3.667.587.953.44,1.173.44,2.493v2.787c-.513-.073-3.52-1.54-4.253-1.833-2.273-1.027-1.467-.44-3.08-2.933l-4.62-7.48c-.293-.367-9.093-14.447-9.313-14.96ZM96.36,106.48l-.073,18.113c-.22-.147-3.447-6.38-3.887-7.26-.66-1.247-1.393-2.493-1.98-3.667a25.772,25.772,0,0,1-1.907-3.74Zm27.28-.073,4.473,2.127c-.073.44-3.153,5.573-3.813,6.82-.293.44-.293.66-.66.88Zm27.94,7.993c.293-.953,7.407-12.613,8.507-14.887.44.073,14.593,6.38,15.107,6.747a38.8,38.8,0,0,1-2.933,3.447l-8.653,10.047c-.66-.073-7.48-3.3-9.093-4.033C153.56,115.353,152.46,114.767,151.58,114.4Zm-88-16.647,7.773,15.327-3.74,1.687c-1.467.66-10.413,4.84-11.147,4.987a17.579,17.579,0,0,1-1.54-1.687c-.513-.66-.88-1.1-1.393-1.687-1.027-1.1-1.907-2.2-2.933-3.3l-5.5-6.307c-.293-.293-.22-.147-.293-.513ZM77.22,91.52c2.2-.733,15.693-7.333,17.453-7.847a4.185,4.185,0,0,1,.953,1.027c.367.44.733.513.733,1.173l-.073,15.84-9.827,4.473a15.753,15.753,0,0,1-1.027-1.907,53.814,53.814,0,0,0-3.52-5.5C81.327,97.9,77.367,91.96,77.22,91.52Zm46.42-5.647c0-.66,1.1-1.76,1.613-2.2.513.073,9.02,4.033,10.34,4.62a34.418,34.418,0,0,1,3.3,1.54c-.073.367-8.213,14.52-8.58,14.887-.733-.22-2.493-1.1-3.373-1.467-1.027-.513-2.347-1.027-3.3-1.54ZM64.167,89.32c.66-.44,1.76-.66,2.567-1.173a21.182,21.182,0,0,1,2.053-1.54l5.573,8.287c.953,1.393,1.833,2.713,2.787,4.18a40.814,40.814,0,0,1,2.713,4.253c-.587.513-6.673,3.813-6.82,3.887-.513-.66-6.013-12.1-6.747-13.42C65.927,92.987,64.313,89.907,64.167,89.32Zm70.767,40.847c.807-1.393,1.467-2.567,2.2-3.887,1.54-2.64,3.007-5.06,4.473-7.7l26.84-46.493,1.907,1.027a7.32,7.32,0,0,1-1.1,2.127L156.86,96.727c-6.673,11.733-13.567,23.393-20.24,35.127-.293.513-.22.587-.733.88l-3.153,1.32Zm-86.68-62.04a13.424,13.424,0,0,1,4.253-10.12c.367-.367,2.127-1.907,2.713-1.833,0,5.867,3.74,7.26,7.407,9.973A13.846,13.846,0,0,1,66.88,70.4c4.18,6.673,1.247,15.253-6.82,15.253C51.7,85.58,48.253,74.727,48.253,68.127ZM123.64,138.16a6.23,6.23,0,0,1,1.1-2.347l3.74-6.527c4.987-8.36,9.973-17.233,14.887-25.74l19.8-34.393a8.278,8.278,0,0,1,1.613.807,17.441,17.441,0,0,1-1.247,2.273l-3.74,6.453c-4.84,8.653-10.047,17.307-14.96,25.96-3.3,5.793-6.673,11.513-10.047,17.307-.807,1.467-1.613,2.933-2.493,4.4-1.027,1.687-5.867,10.487-6.307,10.78A11.353,11.353,0,0,1,123.64,138.16Zm0-8.947c-.073-.953,0-2.127,0-3.08,0-1.54-.073-1.173.587-2.347L139.847,96.8c.587-1.027,17.16-29.993,17.82-30.873a17.176,17.176,0,0,1,1.98,1.027,45.038,45.038,0,0,1-2.273,3.96l-6.747,11.733c-2.933,5.06-6.16,10.487-8.947,15.547-2.787,4.987-6.16,10.56-9.02,15.62C131.853,115.207,123.86,129.14,123.64,129.213Zm37.473-66.22a18.407,18.407,0,0,1,2.493-1.613c1.027-.66.587-.66,2.64.513l5.133,2.933-.073,3.96c-.513-.073-4.327-2.42-5.133-2.86C164.853,65.267,162.067,63.507,161.113,62.993ZM100.54,140.14c-.22-4.473,0-9.533,0-14.08V59.327c0-3.96-.513-4.62,2.347-4.62h14.007c1.247,0,2.127-.073,2.493.953.073.367.073,6.233,0,6.82H112.2v4.253h7.187V71.94H112.2v4.253h7.187V81.4H112.2v4.18l7.187.073V90.86H112.2v4.18l7.187.073v5.207H112.2v4.18h7.187v5.28H112.2v4.18h7.187v5.207l-7.187.073v4.107c1.613.44,5.28-.147,7.187.147v5.133H112.2v4.253h7.187v5.207c-1.833.22-5.793-.293-7.187.073l-.147,3.227c-.073,1.247-.513,2.933-2.053,2.933-.367.073-6.013-2.64-6.747-2.933A22.32,22.32,0,0,0,100.54,140.14Zm71.133-83.673-.147,3.593a10.489,10.489,0,0,1-1.54-.807c-.44-.293-1.173-.513-1.467-.953ZM74.8,88a44.511,44.511,0,0,1-3.227-5.06,13.97,13.97,0,0,0,1.393-6.967c-.44-5.647-3.373-9.973-7.773-13.127a40.485,40.485,0,0,1-4.767-3.593c-2.127-2.127-.44-5.427-.44-6.673a2.165,2.165,0,0,0-2.053-2.127c-1.393,0-4.767,1.907-5.793,2.567-7.26,4.84-10.193,13.127-6.673,23.833,2.053,6.38,5.867,11.66,12.247,12.76,2.273.367,1.687-.367,2.64,1.613a15.369,15.369,0,0,1,1.32,2.713l-16.647,7.627c-1.1.513-4.84,1.98-5.427,2.713-1.32,1.76.66,3.227,2.2,5.06l11.293,12.907c-.293.513-5.72,6.6-6.233,7.187-1.027,1.173-2.053,2.347-3.08,3.593-.733.88-4.253,4.547-4.473,5.5a1.991,1.991,0,0,0,.953,2.273,21.721,21.721,0,0,0,2.273,1.1l6.893,3.08c.367.147,4.327,1.833,4.4,2.2.073,9.313,0,18.7,0,28.087,0,3.227.44,3.007,2.933,4.107l14.447,6.6c11.147,4.987,22.66,10.34,33.807,15.327.88.367,4.18,2.053,4.987,2.053s8.507-3.667,9.827-4.327c12.907-5.793,25.887-11.587,38.72-17.527,1.54-.66,3.227-1.467,4.767-2.127,2.493-1.173,2.787-1.027,2.787-4.253,0-9.387-.073-18.773,0-28.087,2.493-1.247,6.453-2.933,9.167-4.18.807-.367,1.467-.66,2.273-1.027,1.393-.66,3.667-1.247,3.153-3.373a9.853,9.853,0,0,0-1.393-1.907c-2.2-2.347-4.107-4.767-6.233-7.113-1.1-1.173-2.053-2.347-3.08-3.52a43.047,43.047,0,0,1-3.08-3.667l6.82-7.847c.513-.587,6.6-7.48,6.82-7.92,1.247-2.347-1.98-3.227-3.153-3.813L162.58,95.92a1.075,1.075,0,0,1-.293-.147c.293-.807,1.1-1.907,1.467-2.713l10.413-17.893c1.687-2.933,1.1-2.42,1.32-6.82.147-2.567.073-5.28.22-7.847.073-1.32.073-2.64.147-3.96.073-2.347.807-5.867-1.907-6.087-.953-.073-1.98.807-2.713,1.247-1.613,1.027-3.3,2.053-4.987,3.08-2.2,1.393-7.773,4.987-10.047,6.233-1.027.587-1.173,1.1-1.833,2.127l-7.333,12.833c-1.907,3.3-4.253,7.113-5.94,10.193-.513-.073-13.567-6.087-15.033-6.747-1.76-.88-1.54-.22-2.42-.293V58.007c0-1.98.147-3.153-.733-4.693a5.557,5.557,0,0,0-2.86-2.42c-1.76-.733-7.7-.44-10.12-.44s-8.433-.293-10.193.44c-3.447,1.54-3.373,4.4-3.373,7.187,0,7.04.073,14.08-.073,21.12-.587-.073-.807-.367-1.613-.147a7.2,7.2,0,0,0-1.32.587l-7.92,3.593C84.553,83.6,75.46,87.853,74.8,88Z" fill="#4b006a" fill-rule="evenodd"/>
      <rect id="Rectangle_63" data-name="Rectangle 63" width="123.787" height="18.333" rx="8.947" transform="translate(16.353 245.08)" fill="#ccc"/>
      <rect id="Rectangle_64" data-name="Rectangle 64" width="102.157" height="3.82" rx="1.91" transform="translate(16.353 266.42)" fill="#ccc"/>
      <rect id="Rectangle_65" data-name="Rectangle 65" width="66.509" height="3.82" rx="1.91" transform="translate(16.353 272.8)" fill="#ccc"/>
    </g>
  </g>
</svg>
